<?xml version="1.0" encoding="UTF-8"?>
<!DOCTYPE svg PUBLIC "-//W3C//DTD SVG 1.1//EN" "http://www.w3.org/Graphics/SVG/1.1/DTD/svg11.dtd">
<!-- Creator: CorelDRAW -->
<svg xmlns="http://www.w3.org/2000/svg" xml:space="preserve" width="93.1332mm" height="113.947mm" version="1.1" style="shape-rendering:geometricPrecision; text-rendering:geometricPrecision; image-rendering:optimizeQuality; fill-rule:evenodd; clip-rule:evenodd"
viewBox="0 0 9313.32 11394.72"
 xmlns:xlink="http://www.w3.org/1999/xlink"
 xmlns:xodm="http://www.corel.com/coreldraw/odm/2003">
 <defs>
  <style type="text/css">
   <![CDATA[
    .str1 {stroke:black;stroke-width:20;stroke-miterlimit:22.9256}
    .str0 {stroke:#E42426;stroke-width:35;stroke-miterlimit:10}
    .fil1 {fill:none}
    .fil0 {fill:none;fill-rule:nonzero}
   ]]>
  </style>
 </defs>
 <g id="Слой_x0020_1">
  <metadata id="CorelCorpID_0Corel-Layer"/>
  <path class="fil0 str0" d="M20.98 3434.71l1594.39 0 0 25.26c0,81.25 68.04,147.11 152,147.11l2470.12 0c83.96,0 152.01,-65.86 152.01,-147.11l0 -25.26 1580.98 0c4.72,244.97 2.29,526.14 0.77,745.07 -2.18,324.06 -9.13,760.66 -39.12,1122.43l-0.6 2.75c-20,327.45 -159.88,618.64 -318.1,795.09 -164.61,183.73 -427.21,320.57 -691.16,359.38l-10.27 1.45c-564.16,78.84 -1383.63,59.51 -1924.38,60.18 -555.94,0.71 -1290.05,10.19 -1837.17,-56.34l-16.49 -2.33c-268.21,-39.76 -555.12,-189.51 -738.22,-385.58 -175.4,-187.82 -322.74,-488.46 -333.94,-814.78 -26,-345.86 -39.58,-755.01 -42.44,-1064.22 -2.1,-224.72 -3.41,-511.43 1.62,-763.1l0 0z"/>
  <path class="fil0 str0" d="M1289.74 2050.2c498.16,-53.83 1221.91,-54.54 1694.58,-54.54 440.45,0 1055.47,-20.81 1547.14,31.15 90.74,9.6 215.02,24.7 303.71,46.15 28.4,6.84 56.65,14.35 85.76,23.07 572.66,171.66 1052.3,623.25 1052.3,1254.55l-43.53 0 -72.18 5.29c-215.2,15.66 -516.26,23.56 -732.02,23.56l-744.25 0 0 -162.73c0,-115.86 -95.82,-209.77 -214.03,-209.77l-2338.25 0c-118.17,0 -213.94,93.84 -213.94,209.62l0 162.88 -809.99 0c-218.37,0 -506.29,-8.08 -724.11,-24.16l-63.43 -4.69 0 0c0,-631.3 479.66,-1082.89 1052.31,-1254.55 72.03,-21.59 145.59,-34.79 219.93,-45.83z"/>
  <path class="fil0 str0" d="M2914.34 8888.94c0,-40.12 32.52,-72.6 72.59,-72.6 40.11,0 72.63,32.48 72.63,72.6 0,40.07 -32.52,72.6 -72.63,72.6 -40.07,0 -72.59,-32.53 -72.59,-72.6z"/>
  <path class="fil0 str0" d="M20.98 8278.77l1613.41 0 0 25.26c0,81.25 68.08,147.12 152.03,147.12l2431.21 0c83.96,0 151.98,-65.87 151.98,-147.12l0 -25.26 1582.88 0c4.72,244.97 2.25,486.8 0.77,705.73 -2.22,324.1 -6.95,801.48 -36.93,1163.22l-0.6 2.76c-20.01,327.44 -162.11,625.01 -320.29,801.5 -164.61,183.66 -419.84,323.22 -683.76,361.96l-10.26 1.47c-564.2,78.88 -1371.39,59.48 -1912.14,60.18 -555.94,0.72 -1274.8,10.2 -1821.91,-56.29l-16.51 -2.37c-268.19,-39.8 -557,-187.68 -740.1,-383.76 -175.42,-187.77 -335.55,-499.31 -346.78,-825.63 -25.98,-345.86 -41.76,-795.79 -44.62,-1105.01 -2.1,-224.72 -3.41,-472.09 1.62,-723.76l0 0z"/>
  <path class="fil0 str0" d="M1605.66 8243.67l-722.92 0c-186.52,0 -442.05,-5.22 -628.25,-15.74l-236.99 -13.32 0 0c0,-631.34 479.66,-1004.96 1052.31,-1176.66 72.03,-21.59 145.59,-34.78 219.93,-45.79 498.16,-53.87 1221.36,-58.95 1694.02,-58.95 440.31,0 1071.98,-16.26 1563.51,35.49 80.18,8.43 159.77,20.99 238.37,38.81 39.3,8.88 77.47,18.52 117.3,30.44 572.62,171.7 1052.3,545.32 1052.3,1176.66l0 0 -130.71 8.43c-213.22,13.75 -426.82,20.63 -640.5,20.63l-805.18 0 -11.08 -0.28 0 -21.34c0,-72.05 -59.65,-130.46 -133.17,-130.46l-2460.86 0c-73.55,0 -133.15,58.41 -133.15,130.46l0 21.34 -34.93 0.28z"/>
  <path class="fil0 str0" d="M8655.93 6132.02c-85.55,0 -155.15,-69.61 -155.15,-155.19l0 -595.17c0,-85.59 69.6,-155.19 155.15,-155.19 85.55,0 155.15,69.6 155.15,155.19l0 595.17c0,85.58 -69.6,155.19 -155.15,155.19z"/>
  <path class="fil0 str0" d="M8007.17 11216.64l0 -11076.8c0,-75.74 61.42,-137.16 137.16,-137.16l1023.16 0c75.78,0 137.2,61.42 137.2,137.16l0 11076.8c0,75.73 -61.42,137.15 -137.2,137.15l-1023.16 0c-75.74,0 -137.16,-61.42 -137.16,-137.15z"/>
  <path class="fil0 str0" d="M8655.89 6877.96c-38.13,0 -69.04,-30.93 -69.04,-69.07 0,-38.13 30.91,-69.04 69.04,-69.04 38.14,0 69.08,30.91 69.08,69.04 0,38.14 -30.94,69.07 -69.08,69.07z"/>
  <path class="fil0 str0" d="M8433.01 1155.23l0 -455.61c0,-123.12 99.8,-222.92 222.88,-222.92l0 0c123.16,0 222.96,99.8 222.96,222.92l0 455.61c0,123.12 -99.8,222.92 -222.96,222.92l0 0c-123.08,0 -222.88,-99.8 -222.88,-222.92z"/>
  <path class="fil0 str0" d="M8574.82 4338.18c0,-44.77 36.34,-81.07 81.07,-81.07 44.8,0 81.07,36.3 81.07,81.07 0,44.76 -36.27,81.06 -81.07,81.06 -44.73,0 -81.07,-36.3 -81.07,-81.06z"/>
  <path class="fil0 str0" d="M8574.82 4544.2c0,-44.77 36.34,-81.03 81.07,-81.03 44.8,0 81.07,36.26 81.07,81.03 0,44.8 -36.27,81.07 -81.07,81.07 -44.73,0 -81.07,-36.27 -81.07,-81.07z"/>
  <path class="fil0 str0" d="M8574.82 4126.86c0,-44.76 36.34,-81.03 81.07,-81.03 44.8,0 81.07,36.27 81.07,81.03 0,44.77 -36.27,81.07 -81.07,81.07 -44.73,0 -81.07,-36.3 -81.07,-81.07z"/>
  <path class="fil0 str0" d="M7847.22 8762.79c0,97.33 -74.33,178.39 -171.27,186.75 -134.98,11.61 -325.23,25.2 -477.91,25.2 -169.9,0 -351.05,-12.78 -478.69,-24.18 -96.62,-8.64 -170.46,-89.67 -170.46,-186.68l0 -7438.95c0,-96.07 72.39,-176.57 167.96,-186.45 128.87,-13.26 312.7,-28.4 481.19,-28.4 152.22,0 344.56,15.98 480.23,29.5 95.92,9.56 168.95,90.1 168.95,186.51l0 7436.7z"/>
  <line class="fil1 str1" x1="9423.58" y1="2136.16" x2="9423.58" y2= "2299.34" />
 </g>
</svg>
